<?xml version="1.0" encoding="UTF-8"?>
<svg width="145px" height="27px" viewBox="0 0 145 27" version="1.1" xmlns="http://www.w3.org/2000/svg" xmlns:xlink="http://www.w3.org/1999/xlink">
    <!-- Generator: Sketch 47.1 (45422) - http://www.bohemiancoding.com/sketch -->
    <title>MixBytes()</title>
    <desc>Created with Sketch.</desc>
    <defs></defs>
    <g id="Page-1" stroke="none" stroke-width="1" fill="none" fill-rule="evenodd">
        <g id="Homepage_l" transform="translate(-38.000000, -23.000000)" fill="#FAFAFA">
            <path d="M38.0498047,25.7749023 L42.3466797,25.7749023 L44.5195312,33.7705078 L46.6801758,25.7749023 L51.0014648,25.7749023 L51.0014648,44 L47.9008789,44 L47.9008789,29.4003906 L45.972168,37.371582 L43.1035156,37.371582 L41.1503906,29.4003906 L41.1503906,44 L38.0498047,44 L38.0498047,25.7749023 Z M54.7490234,30.328125 L61.8291016,30.328125 L61.8291016,41.253418 L66.2724609,41.253418 L66.2724609,44 L53.796875,44 L53.796875,41.253418 L58.2524414,41.253418 L58.2524414,33.074707 L54.7490234,33.074707 L54.7490234,30.328125 Z M58.2524414,23.675293 L61.8291016,23.675293 L61.8291016,27.8500977 L58.2524414,27.8500977 L58.2524414,23.675293 Z M81.0795898,30.328125 L76.4775391,36.8710938 L81.4824219,44 L77.3076172,44 L74.6220703,39.3979492 L71.9487305,44 L67.7739258,44 L72.8276367,36.8710938 L68.1767578,30.328125 L72.3515625,30.328125 L74.6220703,34.4052734 L76.9047852,30.328125 L81.0795898,30.328125 Z M87.1586914,35.7236328 L87.1586914,41.1191406 L89.5512695,41.1191406 C90.6987362,41.1191406 91.5023577,40.9238301 91.9621582,40.5332031 C92.4219587,40.1425762 92.6518555,39.4630582 92.6518555,38.4946289 C92.6518555,37.5099235 92.4117863,36.8019227 91.9316406,36.3706055 C91.451495,35.9392882 90.6580459,35.7236328 89.5512695,35.7236328 L87.1586914,35.7236328 Z M87.1586914,28.6191406 L87.1586914,32.8549805 L89.5512695,32.8549805 C90.4627324,32.8549805 91.1117331,32.6922217 91.498291,32.3666992 C91.8848489,32.0411768 92.078125,31.5040728 92.078125,30.7553711 C92.078125,30.0066694 91.88078,29.463462 91.486084,29.1257324 C91.091388,28.7880029 90.4464563,28.6191406 89.5512695,28.6191406 L87.1586914,28.6191406 Z M83.6796875,25.7504883 L89.5512695,25.7504883 C91.5776469,25.7504883 93.101476,26.1350059 94.1228027,26.9040527 C95.1441295,27.6730995 95.6547852,28.8225835 95.6547852,30.3525391 C95.6547852,31.5244199 95.3536814,32.4399381 94.7514648,33.0991211 C94.1492483,33.7583041 93.2662819,34.1407872 92.1025391,34.246582 C93.4941476,34.3849291 94.5419073,34.8528606 95.2458496,35.6503906 C95.9497919,36.4479207 96.3017578,37.5628184 96.3017578,38.9951172 C96.3017578,40.7529385 95.7727917,42.026526 94.7148438,42.815918 C93.6568958,43.6053099 91.9357216,44 89.5512695,44 L83.6796875,44 L83.6796875,25.7504883 Z M105.884277,45.4770508 C105.404132,46.7628645 104.828372,47.700762 104.156982,48.2907715 C103.485592,48.8807809 102.669764,49.1757812 101.709473,49.1757812 L98.7553711,49.1757812 L98.7553711,46.4536133 L100.208008,46.4536133 C100.940433,46.4536133 101.477537,46.3295097 101.819336,46.0812988 C102.161135,45.833088 102.506997,45.2573287 102.856934,44.3540039 L103.125488,43.621582 L97.925293,30.328125 L101.685059,30.328125 L104.810059,39.2026367 L107.800781,30.328125 L111.560547,30.328125 L105.884277,45.4770508 Z M120.679199,26.4462891 L120.679199,30.328125 L125.354492,30.328125 L125.354492,33.074707 L120.679199,33.074707 L120.679199,39.5444336 C120.679199,40.1547882 120.827717,40.5922025 121.124756,40.8566895 C121.421795,41.1211765 121.916175,41.253418 122.60791,41.253418 L125.354492,41.253418 L125.354492,44 L122.351562,44 C120.300771,44 118.913252,43.6724479 118.188965,43.017334 C117.464677,42.36222 117.102539,41.1476326 117.102539,39.3735352 L117.102539,33.074707 L113.611328,33.074707 L113.611328,30.328125 L117.102539,30.328125 L117.102539,26.4462891 L120.679199,26.4462891 Z M140.759766,43.3286133 C139.929683,43.6704119 139.083338,43.926757 138.220703,44.0976562 C137.358069,44.2685555 136.446619,44.3540039 135.486328,44.3540039 C133.199533,44.3540039 131.45191,43.741624 130.243408,42.5168457 C129.034906,41.2920674 128.430664,39.5281691 128.430664,37.2250977 C128.430664,34.9952688 129.012527,33.2334049 130.17627,31.9394531 C131.340012,30.6455013 132.926911,29.9985352 134.937012,29.9985352 C136.963389,29.9985352 138.536046,30.5987082 139.655029,31.7990723 C140.774013,32.9994363 141.333496,34.6900933 141.333496,36.8710938 L141.333496,38.3237305 L132.068359,38.3237305 C132.076497,39.3979546 132.393877,40.1995416 133.020508,40.7285156 C133.647139,41.2574896 134.583002,41.5219727 135.828125,41.5219727 C136.650069,41.5219727 137.459794,41.4039725 138.257324,41.1679688 C139.054854,40.931965 139.888993,40.5576198 140.759766,40.0449219 L140.759766,43.3286133 Z M137.732422,35.6381836 C137.716146,34.6941685 137.474042,33.9800643 137.006104,33.4958496 C136.538165,33.0116349 135.848475,32.7695312 134.937012,32.7695312 C134.115068,32.7695312 133.459963,33.0197729 132.97168,33.5202637 C132.483396,34.0207545 132.194499,34.7307897 132.10498,35.6503906 L137.732422,35.6381836 Z M154.456055,30.7553711 L154.456055,33.8803711 C153.796872,33.4571919 153.11125,33.1377778 152.39917,32.9221191 C151.68709,32.7064605 150.972985,32.5986328 150.256836,32.5986328 C149.459306,32.5986328 148.857098,32.7145984 148.450195,32.9465332 C148.043292,33.178468 147.839844,33.5222959 147.839844,33.9780273 C147.839844,34.6290723 148.710603,35.1580383 150.452148,35.5649414 L150.586426,35.6015625 L151.611816,35.8457031 C152.913906,36.1549495 153.86808,36.6533983 154.474365,37.3410645 C155.080651,38.0287307 155.383789,38.9584902 155.383789,40.1303711 C155.383789,41.5382557 154.921961,42.5941534 153.998291,43.2980957 C153.074621,44.002038 151.685068,44.3540039 149.82959,44.3540039 C149.007646,44.3540039 148.165369,44.2827969 147.302734,44.1403809 C146.4401,43.9979648 145.565271,43.7843439 144.678223,43.4995117 L144.678223,40.3745117 C145.467615,40.8221051 146.271236,41.1638986 147.089111,41.3999023 C147.906987,41.6359061 148.698401,41.7539062 149.463379,41.7539062 C150.301599,41.7539062 150.936359,41.6318372 151.367676,41.3876953 C151.798993,41.1435535 152.014648,40.7895531 152.014648,40.3256836 C152.014648,39.8699521 151.862062,39.5200208 151.556885,39.2758789 C151.251707,39.0317371 150.525396,38.771323 149.37793,38.4946289 L148.38916,38.2749023 C147.021966,37.965656 146.025068,37.4814486 145.398438,36.8222656 C144.771807,36.1630826 144.458496,35.2801162 144.458496,34.1733398 C144.458496,32.8549739 144.934566,31.8295935 145.886719,31.097168 C146.838872,30.3647424 148.177563,29.9985352 149.902832,29.9985352 C150.675948,29.9985352 151.447018,30.0616042 152.216064,30.1877441 C152.985111,30.3138841 153.731767,30.5030912 154.456055,30.7553711 Z M168.689453,25.0302734 C167.615229,26.9752701 166.817711,28.8592031 166.296875,30.6821289 C165.776039,32.5050547 165.515625,34.3279531 165.515625,36.1508789 C165.515625,37.9575286 165.776039,39.7783925 166.296875,41.6135254 C166.817711,43.4486583 167.615229,45.3427637 168.689453,47.2958984 L165.90625,47.2958984 C164.612298,45.4160062 163.652021,43.5625905 163.025391,41.7355957 C162.39876,39.9086009 162.085449,38.0470472 162.085449,36.1508789 C162.085449,34.2628486 162.400794,32.401295 163.031494,30.5661621 C163.662194,28.7310292 164.620436,26.8857515 165.90625,25.0302734 L168.689453,25.0302734 Z M176.233398,25.0302734 L179.016602,25.0302734 C180.302415,26.8857515 181.260658,28.7310292 181.891357,30.5661621 C182.522057,32.401295 182.837402,34.2628486 182.837402,36.1508789 C182.837402,38.0470472 182.524092,39.9086009 181.897461,41.7355957 C181.27083,43.5625905 180.310553,45.4160062 179.016602,47.2958984 L176.233398,47.2958984 C177.307623,45.3427637 178.105141,43.4486583 178.625977,41.6135254 C179.146813,39.7783925 179.407227,37.9575286 179.407227,36.1508789 C179.407227,34.3279531 179.146813,32.5050547 178.625977,30.6821289 C178.105141,28.8592031 177.307623,26.9752701 176.233398,25.0302734 Z" id="MixBytes()"></path>
        </g>
    </g>
</svg>