<svg xmlns="http://www.w3.org/2000/svg" width="244" height="56" viewBox="0 0 243.8 56.3">
  <path d="M19 0c.1 0 .2.1.3.2.2.3.5.7.7 1 2.3 3.1 4.7 6.2 7.1 9.3 1.7 2.2 3.3 4.4 5 6.5.9 1.2 1.8 2.4 2.7 3.7.5.8 1.1 1.5 1.5 2.3.3.6.7 1.2.9 1.8.2.6.4 1.2.5 1.8 0 .2.1.5.1.7v1.6c0 .8-.2 1.6-.5 2.3-.2.5-.5 1.1-.7 1.6-.4.8-.9 1.5-1.4 2.2-.7 1-1.4 1.9-2.1 2.9-1.6 2.1-3.1 4.1-4.7 6.2-2.7 3.6-5.5 7.2-8.2 10.8l-.9 1.2c-.1.1-.1.2-.3.2h.1-.4.1c-.1 0-.2-.1-.2-.2-1.1-1.4-2.1-2.8-3.2-4.2-1.9-2.5-3.8-5-5.8-7.5-1.6-2-3.1-4.1-4.7-6.1L2.5 35c-.4-.6-.9-1.3-1.2-2-.3-.6-.6-1.1-.8-1.8-.2-.6-.3-1.1-.4-1.7 0-.2 0-.5-.1-.7v-.3-.5-.3c0-.8.2-1.6.4-2.4.2-.5.4-1 .7-1.5.4-.7.8-1.4 1.2-2 .7-1.1 1.5-2.2 2.3-3.2C6 16.7 7.5 14.7 9 12.8c3-3.9 6-7.8 8.9-11.7.2-.2.3-.4.5-.6l.3-.3c.2-.2.2-.2.3-.2zm-.1 1l-.2.2c-1.9 2.5-3.8 5-5.7 7.4-1.9 2.5-3.9 5-5.8 7.6C6.1 17.6 5 19.1 4 20.6c-.6.8-1.1 1.6-1.6 2.4-.4.6-.7 1.2-1 1.8-.4 1-.7 2-.7 3v.5c0 .4 0 .7.1 1.1.1.5.2 1.1.4 1.6.2.6.5 1.2.9 1.8.4.7.9 1.4 1.3 2.1.9 1.2 1.8 2.5 2.7 3.7 1.5 2 3.1 4.1 4.7 6.1l5.7 7.5c.8 1 1.6 2 2.3 3.1 0 0 0 .1.1.1l.1-.1 4.8-6.3c2-2.7 4.1-5.4 6.2-8 1.2-1.5 2.3-3 3.4-4.6.6-.8 1.2-1.7 1.8-2.6.4-.6.7-1.2 1.1-1.8.5-.9.8-1.9.8-3v-1.8c-.1-.7-.2-1.3-.5-1.9-.2-.5-.4-.9-.7-1.3-.4-.6-.8-1.3-1.2-1.9l-2.4-3.3c-1.5-2-3.1-4-4.6-6-2.9-4-5.8-7.8-8.6-11.6l-.2-.2z"/>
  <path d="M1.6 28.1c0-.4 0-.8.1-1.3.1-1 .4-1.9.9-2.8.3-.6.7-1.2 1.1-1.8.5-.6 1-1.2 1.4-1.8.5-.6.9-1.3 1.4-1.9 1.3-1.7 2.5-3.3 3.8-5 2.8-3.6 5.5-7.2 8.3-10.8 0 0 0-.1.1-.1.2-.2.4-.2.6 0l.1.1c2.8 3.7 5.6 7.4 8.4 11 1.3 1.6 2.5 3.3 3.8 5 .4.6.8 1.1 1.3 1.7.4.6.9 1.2 1.4 1.7.9 1.1 1.5 2.2 1.8 3.6.1.5.2 1 .3 1.4v1.3c0 .3 0 .6-.1.8-.1.8-.3 1.5-.6 2.2-.5 1.1-1.1 2.1-2 3l-.1.1c-1 1.3-1.9 2.7-2.9 4-2 2.6-3.9 5.1-5.9 7.7-1.8 2.3-3.6 4.7-5.3 7l-.1.1c-.2.2-.4.2-.6 0l-.1-.1c-3.1-4.1-6.3-8.2-9.4-12.3-1.3-1.7-2.6-3.4-3.9-5.2-.3-.4-.5-.8-.8-1.1 0-.1-.1-.1-.1-.2-1.2-1.2-1.9-2.5-2.4-4.1l-.3-1.5c-.2-.1-.2-.4-.2-.7zm7.7 8.3c-.3-.4-.5-.7-.8-1.1-.6-.9-1.3-1.7-1.9-2.6l-1.2-1.8c-.1-.3-.3-.6-.4-.9-.2-.5-.4-1.1-.4-1.7 0-.4 0-.8.1-1.2.1-.4.2-.7.4-1.1.2-.4.5-.9.7-1.3l1.5-2.1c1.1-1.5 2.2-2.9 3.3-4.4 2.7-3.5 5.4-7.1 8.1-10.6 0 0 0-.1.1-.1.1-.1.2-.1.3 0 0 0 0 .1.1.1 1.9 2.4 3.7 4.9 5.6 7.3 1.4 1.8 2.7 3.6 4.1 5.4.8 1 1.6 2.1 2.3 3.2.4.6.8 1.1 1.1 1.7.3.4.5.8.7 1.3.2.4.3.8.3 1.2v.6c0 .5-.1.9-.2 1.3s-.3.7-.5 1l-.9 1.5-2.1 3-.9 1.2s0 .1-.1.1c.1 0 .2 0 .3-.1 1.5-.3 2.8-1 4-2.1l.1-.1c.4-.6.8-1.1 1.1-1.7.3-.5.6-1 .8-1.5.3-.6.5-1.3.6-1.9.1-.6.1-1.2 0-1.7 0-.5-.2-1-.4-1.5-.2-.4-.4-.8-.6-1.3-.4-.7-.8-1.3-1.2-2l-2.4-3.3c-1.3-1.8-2.7-3.5-4-5.3-1.9-2.5-3.8-5-5.7-7.4-.7-.9-1.4-1.8-2.1-2.8l-.1-.1-.1.1c-.4.6-.9 1.2-1.3 1.8-2.4 3.2-4.8 6.3-7.3 9.5l-3.9 5.1c-.7 1-1.5 2-2.1 3-.4.5-.7 1.1-1 1.7-.3.4-.5.8-.6 1.2-.1.4-.2.8-.3 1.3V29c0 .2.1.4.1.7.1.4.2.7.3 1 .2.5.5 1 .7 1.4.4.7.9 1.4 1.3 2l.1.1c1.2 1.1 2.6 1.8 4.2 2.1.1.1.2.1.2.1zm9.6-1.1c3.9 0 7.1-3.2 7.1-7.1 0-4-3.2-7.1-7.1-7.1-3.9 0-7.1 3.2-7.1 7.1 0 3.9 3.2 7 7.1 7.1zm0-25.3c-.1.1-.1.1-.1.2-1.5 2-3.1 4-4.6 6-1.5 2-3 3.9-4.5 5.9-.7.9-1.3 1.8-2 2.7-.3.5-.6 1-.9 1.4-.2.3-.3.6-.4.9-.2.5-.2 1.1-.1 1.6 0 .2.1.5.2.7.1.3.3.7.5 1l1.2 1.8c1 1.5 2.1 2.9 3.2 4.3l.1.1H13l-.1-.1c-.9-1.1-1.7-2.3-2.6-3.4-.6-.8-1.3-1.7-1.8-2.6-.2-.4-.5-.7-.7-1.1-.1-.1-.1-.2-.2-.3-.2-.4-.2-.8-.2-1.2 0-.2.1-.4.2-.6.1-.3.3-.5.4-.8.5-.8 1-1.5 1.5-2.2 1-1.3 1.9-2.6 2.9-3.9 1.5-2 3.1-4 4.6-6 .6-.8 1.2-1.5 1.8-2.3l.1-.1.1.1c1.1 1.4 2.2 2.9 3.3 4.3 1.5 2 3.1 4 4.6 6 .7.9 1.4 1.9 2.1 2.8.4.6.8 1.1 1.1 1.7.1.2.2.3.3.5.1.2.1.3.1.5v.4c0 .1 0 .2-.1.3-.1.1-.1.3-.2.4-.1.2-.2.4-.4.7-.4.7-.9 1.3-1.3 2l-2.7 3.6c-.3.4-.6.8-.9 1.1 0 0 0 .1-.1.1h1.5l.1-.1c.6-.8 1.1-1.5 1.7-2.3.7-.9 1.3-1.8 1.9-2.7.3-.5.7-1 1-1.5.2-.3.3-.6.4-.9.2-.5.2-1.1.1-1.6 0-.2-.1-.5-.2-.7-.2-.4-.4-.7-.6-1.1-.4-.7-.9-1.4-1.4-2-1-1.3-2-2.7-3-4-1.4-1.9-2.9-3.8-4.3-5.7-1-1.3-2-2.7-3.1-4 .1.2.1.1 0 .1zm8 26.6h.9c.1 0 .1 0 .2-.1.9-1.1 1.7-2.3 2.6-3.4.5-.7.9-1.3 1.4-2 .2-.4.5-.8.6-1.2.1-.3.2-.7.3-1v-.8c0-.4-.1-.8-.2-1.1-.1-.3-.3-.7-.5-1-.2-.4-.5-.8-.7-1.2-.6-.8-1.1-1.6-1.7-2.5-1.3-1.7-2.5-3.4-3.8-5.1-1.7-2.2-3.4-4.5-5.2-6.7-.6-.7-1.1-1.5-1.7-2.2-.1-.2-.1-.3-.2-.3l-.1.1c-2.2 2.9-4.4 5.8-6.7 8.7l-3.9 5.1c-.6.9-1.3 1.8-1.9 2.7l-.9 1.5c-.1.2-.2.5-.3.7-.1.4-.1.9-.1 1.3 0 .6.1 1.3.4 1.8.1.3.3.5.4.7L7 32.4c.8 1.2 1.7 2.3 2.6 3.5.1.1.2.3.3.4 0 .1.1.1.1.1h1s0-.1-.1-.1c-.2-.2-.3-.4-.5-.6-.8-1.1-1.7-2.2-2.5-3.4-.4-.6-.9-1.2-1.3-1.9-.2-.3-.4-.7-.5-1-.2-.4-.3-.7-.3-1.2 0-.3 0-.6.1-.9l.3-.9c.2-.4.5-.9.7-1.3l1.2-1.8c1-1.4 2.1-2.8 3.1-4.2 2.5-3.2 4.9-6.5 7.4-9.7 0 0 0-.1.1-.1.1-.1.2-.1.3 0 0 0 0 .1.1.1.6.8 1.2 1.5 1.7 2.3 2 2.5 3.9 5.1 5.9 7.6 1 1.3 2 2.6 3 4 .5.6.9 1.3 1.3 2 .2.4.5.8.7 1.2.2.4.3.8.3 1.2 0 .3 0 .7-.1 1-.1.3-.2.7-.4 1l-.9 1.5c-.6.8-1.2 1.7-1.8 2.5-.6.8-1.3 1.7-1.9 2.5v.4zm-13.3 9s0-.1 0 0l2-2c.8-.8 1.2-2.1 1-3.2-.1-.8-.5-1.5-1.1-2.1-.7-.6-1.5-.9-2.4-.9h-2.2c-.4 0-.9 0-1.3-.1-.6-.1-1.3-.2-1.9-.5-.4-.1-.8-.3-1.1-.5h-.1l.1.1c.5.7 1 1.4 1.6 2.1 1.3 1.8 2.7 3.5 4 5.3.4.6.9 1.1 1.3 1.7l.1.1zm17.8-9.4h-.1c-.5.2-.9.4-1.4.6-.6.2-1.2.3-1.9.4h-3.1c-.3 0-.6 0-.8.1-1.8.4-3.1 2.2-2.7 4.3.1.7.5 1.4 1 1.9l1.9 1.9.1.1c.1-.1 6.8-9 7-9.3zm-7.8 10.3h-9.2-.1-.1c0 .1.1.1.1.2 1 1.3 2.1 2.7 3.1 4 .5.6.9 1.2 1.4 1.8 0 0 0 .1.1.1 1.6-2 3.1-4 4.7-6.1zm-6.4-4.4v.1c-.2.7-.6 1.3-1.1 1.9l-1.4 1.4-.1.1v.1H23.5l-.1-.1-1.4-1.4c-.6-.6-1-1.2-1.2-2v-.1c-.1 0-.1.1-.1.1-.5.6-1 1.3-1.5 1.9l-.1.1c-.1-.1-.2-.3-.3-.4-.1-.1-.2-.3-.3-.4-.1-.1-.2-.3-.3-.4-.1-.1-.2-.3-.3-.4-.4-.2-.5-.3-.7-.5z"/>
  <path d="M21.7 26.3h-1.5v-.1c0-.1-.1-.2-.2-.3-.1-.1-.2-.2-.3-.2-.2-.1-.3-.3-.4-.4-.1-.1-.2-.3-.3-.5v.1c0 .2-.1.3-.2.4-.1.1-.2.3-.4.4l-.3.3-.2.2c-.2.3-.1.6.1.8.2.2.6.2.8-.1l.1-.1v.3c-.1.3-.4.5-.7.5H18h-.1H20c.5.2 1 .5 1.3.9.3.4.5.9.5 1.4 0 .5-.2 1-.5 1.4-.4.5-.8.8-1.4.9-.8.2-1.6.2-2.4-.3-.5-.3-.8-.6-1.1-1.1-.1-.3-.2-.6-.2-.8v-.1h1.5v.1c0 .1.1.3.3.4l.5.5.2.2c.1.1.2.3.3.5v-.1c.1-.2.1-.3.3-.5.1-.2.3-.3.4-.5.1-.1.2-.2.3-.2.1 0 .1-.1.2-.2.2-.2.2-.6-.1-.8-.2-.2-.6-.2-.8 0l-.1.1c-.1-.4.2-.7.5-.8h.4-1.9c-.5-.2-1-.5-1.4-.9-.3-.3-.4-.7-.5-1.1-.1-.6.1-1.1.4-1.6.3-.5.8-.8 1.4-1 .9-.3 1.8-.2 2.6.3.5.3.9.8 1.1 1.3-.1.2-.1.4-.1.7 0-.1 0-.1 0 0 0-.1 0 0 0 0zM74.5 18.3c2.7 0 5.4.7 7.4 1.8V23c-1.9-1.3-4.7-1.9-7.2-1.9-3.2 0-5.6.9-5.6 3.6 0 6.2 14.5 3.5 14.5 12.3 0 4.8-4.4 6.7-9 6.6-3.2 0-6-.8-8.4-2.1v-2.9c2.6 1.6 5.4 2.2 8.1 2.2 3.4 0 6.3-.9 6.3-3.6 0-6.5-14.5-3.8-14.5-12.4.1-4.5 4-6.5 8.4-6.5zM113.3 18.7c5.6 0 10.3 1.8 10.3 7.9 0 6.1-4.7 7.9-10.3 7.9h-5.4v8.6H105V18.7h8.3zm.1 2.8h-5.5v10.2h5.5c4 0 7.2-1 7.2-5.1.1-4.2-3.2-5.1-7.2-5.1zM152.9 19c5.5 0 8.7 3.1 8.8 6.5.1 2.2-1 4.4-3.2 6 2.3 1.1 4.1 2.8 4.1 5.6 0 3.3-2.8 6.4-9.4 6.4-6.5 0-9.7-3.3-9.7-6.9 0-2.2 1.3-4.7 4-6.4-1.8-1.1-3.2-2.7-3.2-5.1 0-3 2.6-6.1 8.6-6.1zM150 31.4c-2.4 1.2-3.6 3.1-3.6 4.9 0 2.8 2.3 4.5 6.8 4.5 3.7 0 6.4-1.4 6.4-3.6 0-3.1-3.1-3.8-6.4-4.8-1-.3-2.1-.6-3.2-1zm2.9-9.7c-3.6 0-5.6 1.5-5.6 3.4 0 3.1 3.2 3.8 5.9 4.6.9.2 1.9.5 2.9.8 1.9-1.2 2.8-2.9 2.8-4.5-.1-2.3-2.1-4.3-6-4.3zM192.5 18.7c8.6 0 12.9 5.2 12.9 12.2 0 7-4.3 12.2-12.9 12.2h-8V18.7h8zm0 2.8h-5.1v18.8h5.1c6.6 0 9.9-3.6 9.9-9.4 0-5.9-3.3-9.4-9.9-9.4zM243.6 18.7v2.8h-13.5v7.9h12.5v2.8h-12.5v8.1h13.7v2.8h-16.6V18.7h16.4z"/>
</svg>
