<svg width="266" height="46" viewBox="0 0 266 46" xmlns="http://www.w3.org/2000/svg"><title>logo-storiqa</title><g fill="none" fill-rule="evenodd"><path d="M26.3 45.7c-.5 0-1-.1-1.3-.4L0 22.7 25 .5a2 2 0 0 1 1.3-.5h234.2a5.5 5.5 0 0 1 3.8 1.4 5 5 0 0 1 1.7 3.7v35.4c0 2.8-2.4 5.2-5.4 5.2H26.3z" fill="#2EB6F7"/><path d="M36.8 8.7v3.6h3.6L47 25.6c.4.6 1.4 2.7 2.7 2.5h13.4c1.3 0 2.5-.6 3-1.7l6.7-11.5c.2-.3.4-.6.4-1 0-.8-.6-1.6-1.5-1.6H44.5L43 8.7h-6.2zM55 33.4c0 2.4-1.2 3.5-3.6 3.5-2.5 0-3.7-1.1-3.7-3.5S49 30 51.5 30s3.6 1.2 3.6 3.5zm11 0c0 2.4-1.2 3.5-3.6 3.5-2.5 0-3.7-1.1-3.7-3.5S60 30 62.5 30s3.7 1.2 3.7 3.5zm18.6-7.3a5.6 5.6 0 0 1 3.3 1.3 7 7 0 0 0 3 1.7c.4 0 .7 0 1-.3a1 1 0 0 0 .2-.9 1.3 1.3 0 0 0-.7-1.1 43 43 0 0 0-4.2-1.5c-4-1.4-6.2-4-6.2-7.8a8 8 0 0 1 3.3-6.7 11.5 11.5 0 0 1 7.1-2.2 11.9 11.9 0 0 1 6.4 1.7 5 5 0 0 1 2.7 4.3 3.6 3.6 0 0 1-1 2.6 3.5 3.5 0 0 1-2.7 1.1 6.5 6.5 0 0 1-3.8-1.5 4 4 0 0 0-2-1 1 1 0 0 0-.8.2 1 1 0 0 0-.3.9c0 .6 1 1.2 2.8 1.7a18.1 18.1 0 0 1 6 2.9c2 1.5 3 3.9 2.9 6.3 0 2.6-1 5.2-3.2 6.9a12.1 12.1 0 0 1-7.7 2.3 12 12 0 0 1-7.8-2.4 5.6 5.6 0 0 1-2.5-4.5 3.8 3.8 0 0 1 1.2-2.8 4.3 4.3 0 0 1 3-1.2zm24.9-8.5H107a5.3 5.3 0 0 1-3.4-1 3.7 3.7 0 0 1-1.4-3 4 4 0 0 1 .6-2.3 3.8 3.8 0 0 1 1.8-1.5 17 17 0 0 1 5-.4h9.4c1.5-.1 3 0 4.5.4.7.3 1.4.8 1.8 1.5.4.6.7 1.4.7 2.2a4.2 4.2 0 0 1-1.5 3.3 5.4 5.4 0 0 1-3.6 1h-2.1v13.4a6.2 6.2 0 0 1-.8 3.4c-.8 1.3-2.3 2-3.9 2-1.5 0-3-.6-3.8-1.8a5.8 5.8 0 0 1-.8-3.5V17.6zm31.2-9a14.6 14.6 0 0 1 8 2.2c2.3 1.4 4.2 3.4 5.4 5.7a13.5 13.5 0 0 1-.3 13.3 15 15 0 0 1-13.1 7.3 15 15 0 0 1-13.2-7.9 14.2 14.2 0 0 1-1.5-6.6c0-2 .4-4 1.3-5.7a14 14 0 0 1 5.5-6 15.3 15.3 0 0 1 8-2.3zM177.1 26l2.2 3.3a5.3 5.3 0 0 1 .8 2.9 4 4 0 0 1-1.3 3.1 4.7 4.7 0 0 1-3.3 1.2c-1.6.1-3-.7-3.9-2l-3.8-6.1v3.7a4.3 4.3 0 0 1-1.3 3.1 4.4 4.4 0 0 1-3.2 1.3c-1.5.1-2.8-.5-3.7-1.6a6 6 0 0 1-1.1-3.8V14.5c0-3.4 1.9-5.1 5.7-5.1h6a9 9 0 0 1 5.3 1.6 9.6 9.6 0 0 1 3.7 4.2 9.5 9.5 0 0 1 1 3.9c-.1 2.5-1.2 5-3.1 6.9zm15.5-11.3v16.7a5.4 5.4 0 0 1-1.1 3.5c-.9 1-2.2 1.7-3.5 1.6a4.6 4.6 0 0 1-3.5-1.4 5.1 5.1 0 0 1-1.1-3.7V14.7a5.8 5.8 0 0 1 1.1-4 4.8 4.8 0 0 1 3.5-1.5c1.3 0 2.5.5 3.4 1.4a5.8 5.8 0 0 1 1.2 4zm-173.5 4c2.4 0 4.3 1.9 4.3 4.2 0 2.3-2 4.1-4.3 4.1a4.2 4.2 0 0 1-4.1-4c0-2.3 1.9-4.2 4.2-4.2zm204.8 10c1.3.9 2 2.3 2.2 3.9 0 1.3-.6 2.6-1.7 3.5a4.4 4.4 0 0 1-2.9 1 6.2 6.2 0 0 1-4-1.8 16 16 0 0 1-7.1 1.9c-8.3 0-15-6.4-15-14.3a13.5 13.5 0 0 1 2.5-7.7c1.5-2.4 3.7-4.2 6.4-5.3a15.8 15.8 0 0 1 6-1.2 15 15 0 0 1 10 3.5c3.2 2.6 5.1 6.5 5 10.6a14.3 14.3 0 0 1-1.4 5.9zm14 4.2a7.8 7.8 0 0 1-1.4 2.2 4.6 4.6 0 0 1-3.4 1.4c-1.6.1-3-.6-3.9-1.9a4.3 4.3 0 0 1-.8-2.5c0-.8.2-1.6.6-2.3l8.8-18a4.4 4.4 0 0 1 4.3-2.6c1.9-.1 3.6 1 4.3 2.7l9 18a4.8 4.8 0 0 1 .5 2.2 4.1 4.1 0 0 1-1 2.8 4.6 4.6 0 0 1-3.8 1.6 4.3 4.3 0 0 1-3-1 8.5 8.5 0 0 1-1.8-2.6h-8.5z" fill="#FFF"/></g></svg>